<svg width="1026" height="1026" viewBox="0 0 1026 1026" fill="none" xmlns="http://www.w3.org/2000/svg">
<g clip-path="url(#clip0_382_99)">
<path d="M846 0H180C80.5887 0 0 80.5887 0 180V846C0 945.411 80.5887 1026 180 1026H846C945.411 1026 1026 945.411 1026 846V180C1026 80.5887 945.411 0 846 0Z" fill="black"/>
<g clip-path="url(#clip1_382_99)">
<path d="M384.572 483.977H335.94L285.495 638.935L326.475 662.597L384.572 483.977Z" fill="white"/>
<path d="M338.558 453.871H482.24L508.922 407.554H338.558C321.085 407.534 304.042 412.965 289.802 423.09C275.562 433.215 264.835 447.53 259.115 464.04L213 597.049L253.879 620.61L302.814 479.647C305.336 472.157 310.139 465.644 316.549 461.022C322.959 456.399 330.655 453.899 338.558 453.871Z" fill="white"/>
<path d="M467.641 604.299L452.537 650.615L584.338 746.369L619.579 714.753L467.641 604.299Z" fill="white"/>
<path d="M424.444 638.835L468.847 502.201L433.103 462.429L380.443 624.537C375.085 641.156 375.048 659.034 380.336 675.676C385.625 692.318 395.976 706.894 409.945 717.371L522.111 802.453L557.151 770.837L437.835 680.217C431.632 675.523 427.02 669.036 424.625 661.634C422.23 654.232 422.166 646.273 424.444 638.835Z" fill="white"/>
<path d="M607.697 562.513L647.066 591.109L778.967 495.354L759.736 452.159L607.697 562.513Z" fill="white"/>
<path d="M793.869 528.783L671.131 614.367C664.73 618.906 657.077 621.344 649.231 621.344C641.384 621.344 633.732 618.906 627.331 614.367L511.037 529.487L462.203 551.236L600.045 651.924C614.193 662.204 631.195 667.816 648.683 667.978C666.171 668.141 683.275 662.846 697.612 652.83L813 572.28L793.869 528.783Z" fill="white"/>
<path d="M611.323 416.314L650.692 387.719L600.348 232.76L553.326 237.694L611.222 416.415L611.323 416.314Z" fill="white"/>
<path d="M666.096 413.596L550.003 498.073L555.339 551.236L693.181 451.052C707.294 440.784 717.862 426.379 723.419 409.834C728.976 393.29 729.247 375.426 724.193 358.721L683.616 224L636.695 228.934L680.192 372.112C682.448 379.634 682.303 387.672 679.776 395.107C677.25 402.543 672.468 409.005 666.096 413.596Z" fill="white"/>
<path d="M473.379 367.782L458.376 321.466H295.362L285.596 367.782H473.379Z" fill="white"/>
<path d="M487.777 314.619L532.18 451.354L584.437 462.429L531.777 300.422C526.398 283.805 515.972 269.278 501.949 258.865C487.926 248.452 471.006 242.67 453.543 242.325L312.58 239.506L302.511 285.722L452.133 288.642C460.047 288.69 467.746 291.224 474.142 295.885C480.538 300.547 485.308 307.1 487.777 314.619Z" fill="white"/>
</g>
</g>
<defs>
<clipPath id="clip0_382_99">
<rect width="1026" height="1026" fill="white"/>
</clipPath>
<clipPath id="clip1_382_99">
<rect width="600" height="578.453" fill="white" transform="translate(213 224)"/>
</clipPath>
</defs>
</svg>
